<svg id="Capa_1" enable-background="new 0 0 510 510" height="512" viewBox="0 0 510 510" width="512" xmlns="http://www.w3.org/2000/svg"><g><g><g><g id="XMLID_115_"><circle cx="255" cy="320" fill="#fff59b" r="100"/></g></g></g><g fill="#020288"><path d="m275 290c5.522 0 10-4.478 10-10s-4.478-10-10-10h-10v-10c0-5.523-4.478-10-10-10-5.523 0-10 4.477-10 10v10h-10c-5.523 0-10 4.478-10 10v40c0 5.522 4.477 10 10 10h30v20h-30c-5.523 0-10 4.478-10 10s4.477 10 10 10h10v10c0 5.522 4.477 10 10 10 5.522 0 10-4.478 10-10v-10h10c5.522 0 10-4.478 10-10v-40c0-5.522-4.478-10-10-10h-30v-20z"/><path d="m302.044 115.75c22.861-15.25 37.956-41.267 37.956-70.75v-35c0-5.523-4.478-10-10-10h-150c-5.523 0-10 4.477-10 10v35c0 29.483 15.095 55.5 37.956 70.75-84.87 21.105-147.956 97.942-147.956 189.25v128c0 42.458 34.542 77 77 77h236c42.458 0 77-34.542 77-77v-128c0-91.308-63.086-168.145-147.956-189.25zm-112.044-70.75v-25h130v25c0 23.884-12.958 44.787-32.203 56.084 4.564-11.391 7.203-25.48 7.203-41.084 0-5.522-4.478-10-10-10s-10 4.478-10 10c0 30.522-11.846 50-20 50s-20-19.478-20-50c0-5.522-4.477-10-10-10s-10 4.478-10 10c0 15.604 2.639 29.693 7.203 41.084-19.245-11.297-32.203-32.2-32.203-56.084zm240 388c0 31.43-25.57 57-57 57h-236c-31.43 0-57-25.57-57-57v-128c0-96.495 78.505-175 175-175s175 78.505 175 175z"/><path d="m457.071 32.929c-10.471-10.468-29.391-29.401-30.128-30.116-4.021-3.882-10.257-3.644-14.015.115l-30 30c-3.905 3.905-3.905 10.237 0 14.143 3.906 3.904 10.236 3.904 14.143 0l12.929-12.928v85.857c0 5.522 4.478 10 10 10s10-4.478 10-10v-85.857l12.929 12.929c1.953 1.951 4.511 2.928 7.071 2.928s5.118-.977 7.071-2.929c3.906-3.905 3.906-10.237 0-14.142z"/><path d="m67.071 47.071 12.929-12.928v85.857c0 5.522 4.478 10 10 10s10-4.478 10-10v-85.857l12.929 12.929c3.907 3.905 10.236 3.904 14.143 0 3.905-3.905 3.905-10.237 0-14.143l-30-30c-3.892-3.892-10.242-3.899-14.143 0l-30 30c-3.905 3.905-3.905 10.237 0 14.143 3.906 3.904 10.236 3.904 14.142-.001z"/></g></g></svg>