<svg xmlns:svg="http://www.w3.org/2000/svg" xmlns="http://www.w3.org/2000/svg" version="1.0" width="320" height="320">
                        
                        <g id="sub-svg-transform" transform="translate(5 5) scale(5.400696002702985) translate(-223.6999969482422 -7.399993896484375)">
                            <g id="sub-svg-wrapper"><path fill-rule="evenodd" clip-rule="evenodd" fill="#8B2332" d="M280.5,27.2c-0.9-6.3-6.2-11-12.5-11.6c-10.4-0.6-20.8-0.6-31.2,0   c-6.3,0.6-11.6,5.2-12.5,11.6c-0.6,5.9-0.6,11.9,0,17.8c0.9,6.3,6.2,11,12.5,11.6c10.4,0.6,20.8,0.6,31.2,0   c6.3-0.6,11.6-5.2,12.5-11.6C281.1,39.1,281.1,33.1,280.5,27.2z M252.1,48.3h-20.5V37.5h20.5c3,0,5.4,2.4,5.4,5.4   C257.5,45.9,255.1,48.3,252.1,48.3z M252.1,34.7h-20.5V23.9h20.5c3,0,5.4,2.4,5.4,5.4C257.5,32.3,255.1,34.7,252.1,34.7z" onmouseup="sendClickToParentDocument(evt)" style=""></path></g>
                        </g>
                    </svg>