<?xml version="1.0"?>
<svg xmlns="http://www.w3.org/2000/svg" xmlns:xlink="http://www.w3.org/1999/xlink" xmlns:svgjs="http://svgjs.com/svgjs" version="1.1" width="512" height="512" x="0" y="0" viewBox="0 0 512.049 512.049" style="enable-background:new 0 0 512 512" xml:space="preserve" class=""><g><g xmlns="http://www.w3.org/2000/svg"><g fill="#020288"><path d="m426.705 343.22c-5.523 0-10 4.477-10 10v17.375c.492 13.254 19.513 13.244 20 0v-17.375c0-5.523-4.477-10-10-10z" fill="#f7f7f8" data-original="#020288" style="" class=""/><path d="m394.08 310.595c0-5.523-4.477-10-10-10h-17.375c-13.254.492-13.244 19.513 0 20h17.375c5.523 0 10-4.477 10-10z" fill="#f7f7f8" data-original="#020288" style="" class=""/><path d="m389.493 333.664-12.286 12.286c-9.038 9.689 4.465 23.176 14.143 14.143l12.286-12.286c9.038-9.688-4.465-23.178-14.143-14.143z" fill="#f7f7f8" data-original="#020288" style="" class=""/><path d="m245.759 423.999h-25.199c-13.254.492-13.244 19.513 0 20h25.199c13.253-.492 13.243-19.513 0-20z" fill="#f7f7f8" data-original="#020288" style="" class=""/><path d="m227.343 370.399c-3.905-3.905-10.237-3.905-14.143 0l-17.818 17.818c-9.038 9.689 4.465 23.176 14.143 14.143l17.818-17.818c3.906-3.906 3.906-10.238 0-14.143z" fill="#f7f7f8" data-original="#020288" style="" class=""/><path d="m163.743 341.984c-5.523 0-10 4.477-10 10v25.198c.492 13.254 19.513 13.244 20 0v-25.198c0-5.523-4.477-10-10-10z" fill="#f7f7f8" data-original="#020288" style="" class=""/><path d="m114.285 370.399c-9.687-9.038-23.177 4.466-14.142 14.143l17.818 17.818c9.686 9.038 23.177-4.466 14.142-14.143z" fill="#f7f7f8" data-original="#020288" style="" class=""/><path d="m106.927 423.999h-25.199c-13.254.492-13.244 19.513 0 20h25.199c13.254-.492 13.244-19.513 0-20z" fill="#f7f7f8" data-original="#020288" style="" class=""/></g><g clip-rule="evenodd" fill="#ffbebc" fill-rule="evenodd"><path d="m261.612 40.12v97.033l.693-.186c52.514-13.764 80.129 14.027 131.794.183v-97.03c-51.893 13.905-79.522-14.192-132.487 0z" fill="#f7733d" data-original="#ffbebc" style="" class=""/><path d="m404.223 279.607c-13.331 6.488-22.518 20.165-22.518 35.988.31 41.84 56.129 55.012 75.408 18.626-14.709-20.822-32.57-39.258-52.89-54.614z" fill="#f7733d" data-original="#ffbebc" style="" class=""/><path d="m221.754 433.999c0-32.038-25.972-58.01-58.01-58.01-52.279-.123-77.563 64.63-40.022 100.004h80.044c11.082-10.566 17.988-25.473 17.988-41.994z" fill="#f7733d" data-original="#ffbebc" style="" class=""/></g><path d="m437.068 294.973c-44.665-44.665-102.929-70.793-165.455-74.518v-184.462c-.492-13.254-19.513-13.244-20 0v184.037c-135.865-.454-254.366 120.027-251.564 255.964-.002 5.521 4.475 9.998 9.998 9.998h492.002c5.523 0 10-4.477 10-10 0-68.38-26.629-132.667-74.981-181.019zm-416.812 171.02c5.199-124.042 106.601-223.649 231.357-225.96v15.021c.492 13.254 19.513 13.244 20 0v-14.554c119.606 7.825 215.183 105.161 220.227 225.493z" fill="#f7f7f8" data-original="#020288" style="" class=""/></g></g></svg>
