<?xml version="1.0" encoding="utf-8"?>
<!-- Generator: Adobe Illustrator 26.0.0, SVG Export Plug-In . SVG Version: 6.00 Build 0)  -->
<svg version="1.1" id="Layer_1" xmlns="http://www.w3.org/2000/svg" xmlns:xlink="http://www.w3.org/1999/xlink" x="0px" y="0px"
	 viewBox="0 0 512 512" style="enable-background:new 0 0 512 512;" xml:space="preserve">
<style type="text/css">
	.st0{fill-rule:evenodd;clip-rule:evenodd;fill:#09AB90;}
	.st1{fill:#F7F7F8;}
</style>
<g>
	<path class="st0" d="M326,137c0,33.1-22.9,60.8-53.7,68.1v1.3l1.8,42.2l2.4-0.6c15.9-2.9,30.6-9.2,43.4-18l16.2,13.8l26.6-26.6
		l-13.8-16.2c8.8-12.8,15.1-27.5,18-43.4l21.2-1.7v-37.6l-21.2-1.7c-2.9-15.9-9.2-30.6-18-43.4l13.8-16.2l-26.6-26.6l-16.2,13.8
		c-12.8-8.8-27.5-15.1-43.4-18l-1.7-21.2h-37.6l-1.7,21.2c-15.9,2.9-30.6,9.2-43.4,18l-16.2-13.8l-26.6,26.6l13.8,16.2
		c-8.8,12.8-15.1,27.5-18,43.4l-21.2,1.7v37.6l21.2,1.7c2.9,15.9,9.2,30.6,18,43.4l-13.8,16.2l26.6,26.6l16.2-13.8
		c12.8,8.8,27.5,15.1,43.4,18l2.4,0.4l1.8-42v-1.2C160.1,184.5,172.9,68.9,256,67C294.7,67,326,98.3,326,137L326,137z"/>
	<g>
		<path class="st1" d="M497.8,160.7c-11-6-27.8-4.8-38.6,12.1c0,0.1-0.1,0.1-0.1,0.2L419,238.7c-4.8-2.8-10.4-4-16-3.5
			c-7.1,0.6-13.4,4-17.9,9.3c-5.4,6.5-38.8,48.4-44.5,55.3c-9.5,11.5-21.7,20.3-34.5,29.6c-18.2,13.2-38.2,27.7-50,51.3
			c-11.8-23.6-31.8-38.1-50-51.3c-12.9-9.3-25-18.1-34.5-29.6c-2.7-3.3-12.6-15.6-22.1-27.5c-10-12.5-19.5-24.3-22.3-27.8
			c-4.5-5.4-10.8-8.7-17.9-9.3c-5.6-0.5-11.2,0.7-16,3.5L52.9,173c0-0.1-0.1-0.1-0.1-0.2c-10.8-17-27.6-18.2-38.6-12.1
			c-13,7.2-17.9,23.2-11.3,37.2c0,0,0,0.1,0,0.1c2.8,5.8,9.6,22.1,17.6,41c11.1,26.5,24.9,59.4,36.6,85.1
			c15.2,33.5,22.1,42.9,48.7,67.2l36,32.7v3.1H136c-5.5,0-10,4.5-10,10v60c0,5.5,4.5,10,10,10H376c5.5,0,10-4.5,10-10v-60
			c0-5.5-4.5-10-10-10h-5.9V424l36-32.7c26.7-24.2,33.5-33.7,48.7-67.2c11.7-25.7,25.5-58.6,36.6-85.1c7.9-18.9,14.8-35.2,17.6-41.1
			c0,0,0-0.1,0-0.1C515.7,183.9,510.8,167.9,497.8,160.7L497.8,160.7z M158.5,412.2l-39.2-35.7c-24.6-22.3-29.9-29.7-44-60.6
			C63.8,290.4,50,257.6,39,231.3c-8.3-19.9-14.9-35.6-18-41.9c-2.8-6,0.5-9.8,2.9-11.1c4-2.2,8.5-0.2,12,5.3l44.6,73
			c-0.8,5.4-0.1,12,3.1,20.2c9.3,23.6,20.9,47.2,31.8,64.7c2.9,4.7,9.1,6.1,13.8,3.2c4.7-2.9,6.1-9.1,3.2-13.8
			c-10.2-16.5-21.2-38.9-30.2-61.5c-3.8-9.6-1.3-11.8-0.3-12.6c1.5-1.3,3.4-1.9,5.4-1.7c1.7,0.2,3.3,0.9,4.3,2.2
			c5.7,6.8,39,48.7,44.5,55.3c31.3,38,84.8,48.1,90,105.4v9.1h-84.2v-7.5C161.8,416.8,160.6,414.1,158.5,412.2L158.5,412.2z
			 M146,447.1h100v40H146V447.1z M366,487.1H266v-40h100V487.1z M491,189.4c-3.1,6.3-9.6,22.1-18,42c-11,26.3-24.8,59.1-36.3,84.5
			c-14.1,30.9-19.4,38.3-44,60.6l-39.2,35.7c-2.1,1.9-3.3,4.6-3.3,7.4v7.5H266V418c3.8-37.5,26-53.7,51.8-72.4
			c13.3-9.6,27-19.6,38.2-33c2.9-3.4,12.3-15.2,22.3-27.7c9.5-11.9,19.4-24.2,22.1-27.5c1.1-1.3,2.6-2,4.3-2.2
			c2-0.2,3.9,0.4,5.4,1.7c1,0.8,3.5,2.9-0.3,12.6c-8.9,22.5-19.9,45-30.2,61.5c-2.9,4.7-1.5,10.9,3.2,13.8
			c4.7,2.9,10.9,1.5,13.8-3.2c10.8-17.5,22.4-41.1,31.8-64.7c3.3-8.2,3.9-14.9,3.1-20.2l44.6-73c3.5-5.5,8-7.5,12-5.3
			C490.5,179.5,493.8,183.4,491,189.4L491,189.4z"/>
		<path class="st1" d="M229.4,212.5l-3.9,92.7c-0.3,7.9,2.6,15.5,8.2,21.4c11.6,12.6,33,12.6,44.6,0c5.6-5.9,8.5-13.5,8.2-21.4
			l-3.9-92.7C366.2,181.7,346.3,58.7,256,57C165.7,58.7,145.8,181.7,229.4,212.5L229.4,212.5z M266.5,306.1c0.1,3.3-1.6,5.6-2.7,6.7
			c-4.1,4.5-11.6,4.5-15.7,0c-1.1-1.1-2.8-3.4-2.7-6.7l3.8-89.3c4.4,0.4,9,0.4,13.5,0L266.5,306.1z M256,77c33.1,0,60,26.9,60,60
			c-3,79.5-117,79.5-120,0C196,103.9,222.9,77,256,77L256,77z"/>
		<path class="st1" d="M238.9,164.1c3.9,3.9,10.2,3.9,14.1,0l40-40c3.9-3.9,3.9-10.2,0-14.1c-3.9-3.9-10.2-3.9-14.1,0L246,142.9
			l-12.9-12.9c-3.9-3.9-10.2-3.9-14.1,0c-3.9,3.9-3.9,10.2,0,14.1L238.9,164.1z"/>
	</g>
</g>
</svg>
