<?xml version="1.0" encoding="utf-8"?>
<!-- Generator: Adobe Illustrator 26.0.0, SVG Export Plug-In . SVG Version: 6.00 Build 0)  -->
<svg version="1.1" id="Capa_1" xmlns="http://www.w3.org/2000/svg" xmlns:xlink="http://www.w3.org/1999/xlink" x="0px" y="0px"
	 viewBox="0 0 512 512" style="enable-background:new 0 0 512 512;" xml:space="preserve">
<style type="text/css">
	.st0{fill:#09AB90;}
	.st1{fill:#F7F7F8;}
	.st2{fill:#00008B;}
</style>
<g>
	<g>
		<g>
			<path class="st0" d="M291,197.4V0h220v160H355L291,197.4z"/>
		</g>
		<path class="st0" d="M101,440h100v62H101V440z"/>
	</g>
	<g>
		<g>
			<path class="st1" d="M271,371.3V220c0-66.2-53.8-120-120-120S31,153.8,31,220v151.3C13.8,375.7,1,391.4,1,410v92
				c0,5.5,4.5,10,10,10h280c5.5,0,10-4.5,10-10v-92C301,391.4,288.2,375.7,271,371.3z M151,120c55.1,0,100,44.9,100,100v150h-60
				v-20.8c23.9-13.9,40-39.7,40-69.2v-70c0-5.5-4.5-10-10-10H81c-5.5,0-10,4.5-10,10v70c0,29.5,16.1,55.4,40,69.2V370H51V220
				C51,164.9,95.9,120,151,120L151,120z M151,340c-33.1,0-60-26.9-60-60v-60h120v60C211,313.1,184.1,340,151,340z M131,357.5
				c13.1,3.4,26.9,3.4,40,0v18.4l-20,20l-20-20V357.5z M41,390h75.9l27.1,27.1c3.9,3.9,10.2,3.9,14.1,0l27.1-27.1H261
				c11,0,20,9,20,20v40h-30v-20c0-5.5-4.5-10-10-10s-10,4.5-10,10v62H71v-62c0-5.5-4.5-10-10-10s-10,4.5-10,10v20H21v-40
				C21,399,30,390,41,390L41,390z M21,470h30v22H21V470z M251,492v-22h30v22H251z"/>
			<path class="st2" d="M349.9,70H339c-5.5,0-10,4.5-10,10s4.5,10,10,10h10.9c5.5,0,10-4.5,10-10S355.4,70,349.9,70z"/>
			<path class="st2" d="M404.5,70h-10.9c-5.5,0-10,4.5-10,10s4.5,10,10,10h10.9c5.5,0,10-4.5,10-10S410,70,404.5,70z"/>
			<path class="st2" d="M459,70h-10.9c-5.5,0-10,4.5-10,10s4.5,10,10,10H459c5.5,0,10-4.5,10-10S464.5,70,459,70z"/>
		</g>
	</g>
</g>
</svg>
